<?xml version="1.0" encoding="UTF-8" standalone="no"?>
<!DOCTYPE svg PUBLIC "-//W3C//DTD SVG 1.1//EN"
 "http://www.w3.org/Graphics/SVG/1.1/DTD/svg11.dtd">
<!-- Generated by graphviz version 2.43.0 (0)
 -->
<!-- Title: snakemake_dag Pages: 1 -->
<svg width="440pt" height="260pt"
 viewBox="0.00 0.00 440.00 260.00" xmlns="http://www.w3.org/2000/svg" xmlns:xlink="http://www.w3.org/1999/xlink">
<g id="graph0" class="graph" transform="scale(1 1) rotate(0) translate(4 256)">
<title>snakemake_dag</title>
<polygon fill="white" stroke="transparent" points="-4,4 -4,-256 436,-256 436,4 -4,4"/>
<!-- 2 -->
<g id="node1" class="node">
<title>2</title>
<path fill="none" stroke="#d8c356" stroke-width="2" d="M236,-144C236,-144 198,-144 198,-144 192,-144 186,-138 186,-132 186,-132 186,-120 186,-120 186,-114 192,-108 198,-108 198,-108 236,-108 236,-108 242,-108 248,-114 248,-120 248,-120 248,-132 248,-132 248,-138 242,-144 236,-144"/>
<text text-anchor="middle" x="217" y="-123.5" font-family="sans" font-size="10.00">nonpareil</text>
</g>
<!-- 4 -->
<g id="node2" class="node">
<title>4</title>
<path fill="none" stroke="#56d8a2" stroke-width="2" d="M233,-198C233,-198 201,-198 201,-198 195,-198 189,-192 189,-186 189,-186 189,-174 189,-174 189,-168 195,-162 201,-162 201,-162 233,-162 233,-162 239,-162 245,-168 245,-174 245,-174 245,-186 245,-186 245,-192 239,-198 233,-198"/>
<text text-anchor="middle" x="217" y="-183" font-family="sans" font-size="10.00">bowtie2</text>
<text text-anchor="middle" x="217" y="-172" font-family="sans" font-size="10.00">Hosts</text>
</g>
<!-- 12 -->
<g id="node7" class="node">
<title>12</title>
<path fill="none" stroke="#d86656" stroke-width="2" d="M330,-225C330,-225 298,-225 298,-225 292,-225 286,-219 286,-213 286,-213 286,-201 286,-201 286,-195 292,-189 298,-189 298,-189 330,-189 330,-189 336,-189 342,-195 342,-201 342,-201 342,-213 342,-213 342,-219 336,-225 330,-225"/>
<text text-anchor="middle" x="314" y="-210" font-family="sans" font-size="10.00">bowtie2</text>
<text text-anchor="middle" x="314" y="-199" font-family="sans" font-size="10.00">MAGs</text>
</g>
<!-- 4&#45;&gt;12 -->
<g id="edge8" class="edge">
<title>4&#45;&gt;12</title>
<path fill="none" stroke="grey" stroke-width="2" d="M245.22,-187.74C254.76,-190.45 265.65,-193.54 275.86,-196.44"/>
<polygon fill="grey" stroke="grey" stroke-width="2" points="275.2,-199.89 285.77,-199.26 277.11,-193.16 275.2,-199.89"/>
</g>
<!-- 5 -->
<g id="node3" class="node">
<title>5</title>
<path fill="none" stroke="#566bd8" stroke-width="2" d="M134,-117C134,-117 104,-117 104,-117 98,-117 92,-111 92,-105 92,-105 92,-93 92,-93 92,-87 98,-81 104,-81 104,-81 134,-81 134,-81 140,-81 146,-87 146,-93 146,-93 146,-105 146,-105 146,-111 140,-117 134,-117"/>
<text text-anchor="middle" x="119" y="-96.5" font-family="sans" font-size="10.00">fastp</text>
</g>
<!-- 5&#45;&gt;2 -->
<g id="edge1" class="edge">
<title>5&#45;&gt;2</title>
<path fill="none" stroke="grey" stroke-width="2" d="M146.23,-106.38C155.39,-108.95 165.89,-111.91 175.92,-114.73"/>
<polygon fill="grey" stroke="grey" stroke-width="2" points="175.15,-118.15 185.72,-117.48 177.04,-111.41 175.15,-118.15"/>
</g>
<!-- 5&#45;&gt;4 -->
<g id="edge2" class="edge">
<title>5&#45;&gt;4</title>
<path fill="none" stroke="grey" stroke-width="2" d="M141.78,-117.38C155.13,-128.64 172.39,-143.2 186.9,-155.44"/>
<polygon fill="grey" stroke="grey" stroke-width="2" points="184.73,-158.2 194.63,-161.97 189.25,-152.85 184.73,-158.2"/>
</g>
<!-- 21 -->
<g id="node9" class="node">
<title>21</title>
<path fill="none" stroke="#d85e56" stroke-width="2" d="M233,-90C233,-90 201,-90 201,-90 195,-90 189,-84 189,-78 189,-78 189,-66 189,-66 189,-60 195,-54 201,-54 201,-54 233,-54 233,-54 239,-54 245,-60 245,-66 245,-66 245,-78 245,-78 245,-84 239,-90 233,-90"/>
<text text-anchor="middle" x="217" y="-69.5" font-family="sans" font-size="10.00">kraken2</text>
</g>
<!-- 5&#45;&gt;21 -->
<g id="edge7" class="edge">
<title>5&#45;&gt;21</title>
<path fill="none" stroke="grey" stroke-width="2" d="M146.23,-91.62C156.35,-88.78 168.1,-85.47 179.04,-82.39"/>
<polygon fill="grey" stroke="grey" stroke-width="2" points="180.12,-85.73 188.8,-79.65 178.22,-78.99 180.12,-85.73"/>
</g>
<!-- 22 -->
<g id="node10" class="node">
<title>22</title>
<path fill="none" stroke="#88d856" stroke-width="2" d="M233,-36C233,-36 201,-36 201,-36 195,-36 189,-30 189,-24 189,-24 189,-12 189,-12 189,-6 195,0 201,0 201,0 233,0 233,0 239,0 245,-6 245,-12 245,-12 245,-24 245,-24 245,-30 239,-36 233,-36"/>
<text text-anchor="middle" x="217" y="-15.5" font-family="sans" font-size="10.00">SingleM</text>
</g>
<!-- 5&#45;&gt;22 -->
<g id="edge9" class="edge">
<title>5&#45;&gt;22</title>
<path fill="none" stroke="grey" stroke-width="2" d="M141.78,-80.62C155.13,-69.36 172.39,-54.8 186.9,-42.56"/>
<polygon fill="grey" stroke="grey" stroke-width="2" points="189.25,-45.15 194.63,-36.03 184.73,-39.8 189.25,-45.15"/>
</g>
<!-- 6 -->
<g id="node4" class="node">
<title>6</title>
<path fill="none" stroke="#5692d8" stroke-width="2" d="M42,-117C42,-117 12,-117 12,-117 6,-117 0,-111 0,-105 0,-105 0,-93 0,-93 0,-87 6,-81 12,-81 12,-81 42,-81 42,-81 48,-81 54,-87 54,-93 54,-93 54,-105 54,-105 54,-111 48,-117 42,-117"/>
<text text-anchor="middle" x="27" y="-102" font-family="sans" font-size="10.00">FASTQ</text>
<text text-anchor="middle" x="27" y="-91" font-family="sans" font-size="10.00">reads</text>
</g>
<!-- 6&#45;&gt;5 -->
<g id="edge4" class="edge">
<title>6&#45;&gt;5</title>
<path fill="none" stroke="grey" stroke-width="2" d="M54.03,-99C62.63,-99 72.36,-99 81.59,-99"/>
<polygon fill="grey" stroke="grey" stroke-width="2" points="81.72,-102.5 91.71,-99 81.71,-95.5 81.72,-102.5"/>
</g>
<!-- 8 -->
<g id="node5" class="node">
<title>8</title>
<path fill="none" stroke="#d8cb56" stroke-width="2" d="M136,-198C136,-198 102,-198 102,-198 96,-198 90,-192 90,-186 90,-186 90,-174 90,-174 90,-168 96,-162 102,-162 102,-162 136,-162 136,-162 142,-162 148,-168 148,-174 148,-174 148,-186 148,-186 148,-192 142,-198 136,-198"/>
<text text-anchor="middle" x="119" y="-183" font-family="sans" font-size="10.00">Host</text>
<text text-anchor="middle" x="119" y="-172" font-family="sans" font-size="10.00">Genome</text>
</g>
<!-- 8&#45;&gt;4 -->
<g id="edge3" class="edge">
<title>8&#45;&gt;4</title>
<path fill="none" stroke="grey" stroke-width="2" d="M148.03,-180C157.55,-180 168.36,-180 178.51,-180"/>
<polygon fill="grey" stroke="grey" stroke-width="2" points="178.77,-183.5 188.77,-180 178.77,-176.5 178.77,-183.5"/>
</g>
<!-- 9 -->
<g id="node6" class="node">
<title>9</title>
<path fill="none" stroke="#88d856" stroke-width="2" d="M420,-225C420,-225 390,-225 390,-225 384,-225 378,-219 378,-213 378,-213 378,-201 378,-201 378,-195 384,-189 390,-189 390,-189 420,-189 420,-189 426,-189 432,-195 432,-201 432,-201 432,-213 432,-213 432,-219 426,-225 420,-225"/>
<text text-anchor="middle" x="405" y="-204.5" font-family="sans" font-size="10.00">coverm</text>
</g>
<!-- 12&#45;&gt;9 -->
<g id="edge5" class="edge">
<title>12&#45;&gt;9</title>
<path fill="none" stroke="grey" stroke-width="2" d="M342.19,-207C350.25,-207 359.22,-207 367.77,-207"/>
<polygon fill="grey" stroke="grey" stroke-width="2" points="367.89,-210.5 377.89,-207 367.89,-203.5 367.89,-210.5"/>
</g>
<!-- 14 -->
<g id="node8" class="node">
<title>14</title>
<path fill="none" stroke="#d88d56" stroke-width="2" d="M238,-252C238,-252 196,-252 196,-252 190,-252 184,-246 184,-240 184,-240 184,-228 184,-228 184,-222 190,-216 196,-216 196,-216 238,-216 238,-216 244,-216 250,-222 250,-228 250,-228 250,-240 250,-240 250,-246 244,-252 238,-252"/>
<text text-anchor="middle" x="217" y="-237" font-family="sans" font-size="10.00">MAG</text>
<text text-anchor="middle" x="217" y="-226" font-family="sans" font-size="10.00">Catalogue</text>
</g>
<!-- 14&#45;&gt;12 -->
<g id="edge6" class="edge">
<title>14&#45;&gt;12</title>
<path fill="none" stroke="grey" stroke-width="2" d="M250.16,-224.86C258.52,-222.48 267.59,-219.91 276.16,-217.47"/>
<polygon fill="grey" stroke="grey" stroke-width="2" points="277.27,-220.79 285.94,-214.69 275.36,-214.06 277.27,-220.79"/>
</g>
</g>
</svg>
