<?xml version="1.0" encoding="UTF-8" standalone="no"?>
<!DOCTYPE svg PUBLIC "-//W3C//DTD SVG 1.1//EN"
 "http://www.w3.org/Graphics/SVG/1.1/DTD/svg11.dtd">
<!-- Generated by graphviz version 2.43.0 (0)
 -->
<!-- Title: snakemake_dag Pages: 1 -->
<svg width="1118pt" height="764pt"
 viewBox="0.00 0.00 1117.50 764.00" xmlns="http://www.w3.org/2000/svg" xmlns:xlink="http://www.w3.org/1999/xlink">
<g id="graph0" class="graph" transform="scale(1 1) rotate(0) translate(4 760)">
<title>snakemake_dag</title>
<polygon fill="white" stroke="transparent" points="-4,4 -4,-760 1113.5,-760 1113.5,4 -4,4"/>
<!-- 0 -->
<g id="node1" class="node">
<title>0</title>
<path fill="none" stroke="#56c9d8" stroke-width="2" d="M570.5,-36C570.5,-36 540.5,-36 540.5,-36 534.5,-36 528.5,-30 528.5,-24 528.5,-24 528.5,-12 528.5,-12 528.5,-6 534.5,0 540.5,0 540.5,0 570.5,0 570.5,0 576.5,0 582.5,-6 582.5,-12 582.5,-12 582.5,-24 582.5,-24 582.5,-30 576.5,-36 570.5,-36"/>
<text text-anchor="middle" x="555.5" y="-15.5" font-family="sans" font-size="10.00">all</text>
</g>
<!-- 1 -->
<g id="node2" class="node">
<title>1</title>
<path fill="none" stroke="#56d8c9" stroke-width="2" d="M97.5,-252C97.5,-252 29.5,-252 29.5,-252 23.5,-252 17.5,-246 17.5,-240 17.5,-240 17.5,-228 17.5,-228 17.5,-222 23.5,-216 29.5,-216 29.5,-216 97.5,-216 97.5,-216 103.5,-216 109.5,-222 109.5,-228 109.5,-228 109.5,-240 109.5,-240 109.5,-246 103.5,-252 97.5,-252"/>
<text text-anchor="middle" x="63.5" y="-231.5" font-family="sans" font-size="10.00">stats_nonpareil</text>
</g>
<!-- 1&#45;&gt;0 -->
<g id="edge6" class="edge">
<title>1&#45;&gt;0</title>
<path fill="none" stroke="grey" stroke-width="2" d="M64.9,-215.78C68.64,-182.1 82.01,-107.73 128.5,-72 189.17,-25.37 426.17,-19.43 518.44,-18.92"/>
<polygon fill="grey" stroke="grey" stroke-width="2" points="518.46,-22.42 528.45,-18.88 518.44,-15.42 518.46,-22.42"/>
</g>
<!-- 2 -->
<g id="node3" class="node">
<title>2</title>
<path fill="none" stroke="#d86e56" stroke-width="2" d="M103,-324C103,-324 12,-324 12,-324 6,-324 0,-318 0,-312 0,-312 0,-300 0,-300 0,-294 6,-288 12,-288 12,-288 103,-288 103,-288 109,-288 115,-294 115,-300 115,-300 115,-312 115,-312 115,-318 109,-324 103,-324"/>
<text text-anchor="middle" x="57.5" y="-303.5" font-family="sans" font-size="10.00">stats_nonpareil_one</text>
</g>
<!-- 2&#45;&gt;1 -->
<g id="edge10" class="edge">
<title>2&#45;&gt;1</title>
<path fill="none" stroke="grey" stroke-width="2" d="M58.98,-287.7C59.64,-279.98 60.44,-270.71 61.18,-262.11"/>
<polygon fill="grey" stroke="grey" stroke-width="2" points="64.67,-262.37 62.03,-252.1 57.69,-261.77 64.67,-262.37"/>
</g>
<!-- 3 -->
<g id="node4" class="node">
<title>3</title>
<path fill="none" stroke="#d88556" stroke-width="2" d="M245,-396C245,-396 90,-396 90,-396 84,-396 78,-390 78,-384 78,-384 78,-372 78,-372 78,-366 84,-360 90,-360 90,-360 245,-360 245,-360 251,-360 257,-366 257,-372 257,-372 257,-384 257,-384 257,-390 251,-396 245,-396"/>
<text text-anchor="middle" x="167.5" y="-375.5" font-family="sans" font-size="10.00">bowtie2_extract_nonchicken_one</text>
</g>
<!-- 3&#45;&gt;2 -->
<g id="edge11" class="edge">
<title>3&#45;&gt;2</title>
<path fill="none" stroke="grey" stroke-width="2" d="M140.59,-359.88C126.34,-350.81 108.65,-339.55 93.26,-329.76"/>
<polygon fill="grey" stroke="grey" stroke-width="2" points="94.83,-326.61 84.51,-324.19 91.07,-332.51 94.83,-326.61"/>
</g>
<!-- 13 -->
<g id="node14" class="node">
<title>13</title>
<path fill="none" stroke="#80d856" stroke-width="2" d="M229.5,-324C229.5,-324 145.5,-324 145.5,-324 139.5,-324 133.5,-318 133.5,-312 133.5,-312 133.5,-300 133.5,-300 133.5,-294 139.5,-288 145.5,-288 145.5,-288 229.5,-288 229.5,-288 235.5,-288 241.5,-294 241.5,-300 241.5,-300 241.5,-312 241.5,-312 241.5,-318 235.5,-324 229.5,-324"/>
<text text-anchor="middle" x="187.5" y="-303.5" font-family="sans" font-size="10.00">stats_singlem_one</text>
</g>
<!-- 3&#45;&gt;13 -->
<g id="edge27" class="edge">
<title>3&#45;&gt;13</title>
<path fill="none" stroke="grey" stroke-width="2" d="M172.44,-359.7C174.67,-351.9 177.35,-342.51 179.83,-333.83"/>
<polygon fill="grey" stroke="grey" stroke-width="2" points="183.23,-334.68 182.61,-324.1 176.5,-332.76 183.23,-334.68"/>
</g>
<!-- 20 -->
<g id="node21" class="node">
<title>20</title>
<path fill="none" stroke="#56c1d8" stroke-width="2" d="M591.5,-324C591.5,-324 477.5,-324 477.5,-324 471.5,-324 465.5,-318 465.5,-312 465.5,-312 465.5,-300 465.5,-300 465.5,-294 471.5,-288 477.5,-288 477.5,-288 591.5,-288 591.5,-288 597.5,-288 603.5,-294 603.5,-300 603.5,-300 603.5,-312 603.5,-312 603.5,-318 597.5,-324 591.5,-324"/>
<text text-anchor="middle" x="534.5" y="-303.5" font-family="sans" font-size="10.00">bowtie2_map_mags_one</text>
</g>
<!-- 3&#45;&gt;20 -->
<g id="edge46" class="edge">
<title>3&#45;&gt;20</title>
<path fill="none" stroke="grey" stroke-width="2" d="M256.81,-359.97C317.48,-348.39 397,-333.23 455.39,-322.09"/>
<polygon fill="grey" stroke="grey" stroke-width="2" points="456.14,-325.51 465.31,-320.2 454.83,-318.63 456.14,-325.51"/>
</g>
<!-- 4 -->
<g id="node5" class="node">
<title>4</title>
<path fill="none" stroke="#70d856" stroke-width="2" d="M387.5,-468C387.5,-468 263.5,-468 263.5,-468 257.5,-468 251.5,-462 251.5,-456 251.5,-456 251.5,-444 251.5,-444 251.5,-438 257.5,-432 263.5,-432 263.5,-432 387.5,-432 387.5,-432 393.5,-432 399.5,-438 399.5,-444 399.5,-444 399.5,-456 399.5,-456 399.5,-462 393.5,-468 387.5,-468"/>
<text text-anchor="middle" x="325.5" y="-447.5" font-family="sans" font-size="10.00">bowtie2_map_chicken_one</text>
</g>
<!-- 4&#45;&gt;3 -->
<g id="edge13" class="edge">
<title>4&#45;&gt;3</title>
<path fill="none" stroke="grey" stroke-width="2" d="M286.85,-431.88C265.25,-422.31 238.15,-410.3 215.23,-400.15"/>
<polygon fill="grey" stroke="grey" stroke-width="2" points="216.59,-396.92 206.03,-396.07 213.75,-403.32 216.59,-396.92"/>
</g>
<!-- 18 -->
<g id="node19" class="node">
<title>18</title>
<path fill="none" stroke="#568ad8" stroke-width="2" d="M775.5,-180C775.5,-180 639.5,-180 639.5,-180 633.5,-180 627.5,-174 627.5,-168 627.5,-168 627.5,-156 627.5,-156 627.5,-150 633.5,-144 639.5,-144 639.5,-144 775.5,-144 775.5,-144 781.5,-144 787.5,-150 787.5,-156 787.5,-156 787.5,-168 787.5,-168 787.5,-174 781.5,-180 775.5,-180"/>
<text text-anchor="middle" x="707.5" y="-159.5" font-family="sans" font-size="10.00">samtools_stats_cram_human</text>
</g>
<!-- 4&#45;&gt;18 -->
<g id="edge39" class="edge">
<title>4&#45;&gt;18</title>
<path fill="none" stroke="grey" stroke-width="2" d="M395.11,-431.96C457.8,-413.75 549.51,-379.72 612.5,-324 654.98,-286.42 683.73,-225.13 697.7,-190"/>
<polygon fill="grey" stroke="grey" stroke-width="2" points="701.07,-191 701.41,-180.42 694.54,-188.48 701.07,-191"/>
</g>
<!-- 19 -->
<g id="node20" class="node">
<title>19</title>
<path fill="none" stroke="#68d856" stroke-width="2" d="M454.5,-252C454.5,-252 424.5,-252 424.5,-252 418.5,-252 412.5,-246 412.5,-240 412.5,-240 412.5,-228 412.5,-228 412.5,-222 418.5,-216 424.5,-216 424.5,-216 454.5,-216 454.5,-216 460.5,-216 466.5,-222 466.5,-228 466.5,-228 466.5,-240 466.5,-240 466.5,-246 460.5,-252 454.5,-252"/>
<text text-anchor="middle" x="439.5" y="-231.5" font-family="sans" font-size="10.00">crai</text>
</g>
<!-- 4&#45;&gt;19 -->
<g id="edge43" class="edge">
<title>4&#45;&gt;19</title>
<path fill="none" stroke="grey" stroke-width="2" d="M344.95,-431.81C355.08,-422.08 367.07,-409.23 375.5,-396 390.22,-372.9 416.39,-301.17 430.27,-261.7"/>
<polygon fill="grey" stroke="grey" stroke-width="2" points="433.6,-262.78 433.6,-252.18 426.99,-260.47 433.6,-262.78"/>
</g>
<!-- 22 -->
<g id="node23" class="node">
<title>22</title>
<path fill="none" stroke="#56d86b" stroke-width="2" d="M443,-180C443,-180 328,-180 328,-180 322,-180 316,-174 316,-168 316,-168 316,-156 316,-156 316,-150 322,-144 328,-144 328,-144 443,-144 443,-144 449,-144 455,-150 455,-156 455,-156 455,-168 455,-168 455,-174 449,-180 443,-180"/>
<text text-anchor="middle" x="385.5" y="-159.5" font-family="sans" font-size="10.00">samtools_flagstats_cram</text>
</g>
<!-- 4&#45;&gt;22 -->
<g id="edge50" class="edge">
<title>4&#45;&gt;22</title>
<path fill="none" stroke="grey" stroke-width="2" d="M318.61,-431.96C303.48,-391.7 271.61,-288.61 309.5,-216 315.97,-203.61 326.8,-193.52 338.29,-185.6"/>
<polygon fill="grey" stroke="grey" stroke-width="2" points="340.18,-188.55 346.72,-180.22 336.41,-182.65 340.18,-188.55"/>
</g>
<!-- 23 -->
<g id="node24" class="node">
<title>23</title>
<path fill="none" stroke="#d8c356" stroke-width="2" d="M597.5,-180C597.5,-180 485.5,-180 485.5,-180 479.5,-180 473.5,-174 473.5,-168 473.5,-168 473.5,-156 473.5,-156 473.5,-150 479.5,-144 485.5,-144 485.5,-144 597.5,-144 597.5,-144 603.5,-144 609.5,-150 609.5,-156 609.5,-156 609.5,-168 609.5,-168 609.5,-174 603.5,-180 597.5,-180"/>
<text text-anchor="middle" x="541.5" y="-159.5" font-family="sans" font-size="10.00">samtools_idxstats_cram</text>
</g>
<!-- 4&#45;&gt;23 -->
<g id="edge54" class="edge">
<title>4&#45;&gt;23</title>
<path fill="none" stroke="grey" stroke-width="2" d="M326.4,-431.85C329.52,-389.49 343.32,-278.86 403.5,-216 413.9,-205.13 443.72,-193.1 472.99,-183.25"/>
<polygon fill="grey" stroke="grey" stroke-width="2" points="474.47,-186.45 482.87,-180 472.28,-179.8 474.47,-186.45"/>
</g>
<!-- 5 -->
<g id="node6" class="node">
<title>5</title>
<path fill="none" stroke="#56d8a9" stroke-width="2" d="M397.5,-540C397.5,-540 245.5,-540 245.5,-540 239.5,-540 233.5,-534 233.5,-528 233.5,-528 233.5,-516 233.5,-516 233.5,-510 239.5,-504 245.5,-504 245.5,-504 397.5,-504 397.5,-504 403.5,-504 409.5,-510 409.5,-516 409.5,-516 409.5,-528 409.5,-528 409.5,-534 403.5,-540 397.5,-540"/>
<text text-anchor="middle" x="321.5" y="-519.5" font-family="sans" font-size="10.00">bowtie2_extract_nonhuman_one</text>
</g>
<!-- 5&#45;&gt;4 -->
<g id="edge15" class="edge">
<title>5&#45;&gt;4</title>
<path fill="none" stroke="grey" stroke-width="2" d="M322.49,-503.7C322.93,-495.98 323.46,-486.71 323.95,-478.11"/>
<polygon fill="grey" stroke="grey" stroke-width="2" points="327.45,-478.29 324.52,-468.1 320.46,-477.89 327.45,-478.29"/>
</g>
<!-- 6 -->
<g id="node7" class="node">
<title>6</title>
<path fill="none" stroke="#d87d56" stroke-width="2" d="M637,-612C637,-612 516,-612 516,-612 510,-612 504,-606 504,-600 504,-600 504,-588 504,-588 504,-582 510,-576 516,-576 516,-576 637,-576 637,-576 643,-576 649,-582 649,-588 649,-588 649,-600 649,-600 649,-606 643,-612 637,-612"/>
<text text-anchor="middle" x="576.5" y="-591.5" font-family="sans" font-size="10.00">bowtie2_map_human_one</text>
</g>
<!-- 6&#45;&gt;5 -->
<g id="edge17" class="edge">
<title>6&#45;&gt;5</title>
<path fill="none" stroke="grey" stroke-width="2" d="M514.45,-575.97C478.04,-565.97 431.87,-553.3 393.82,-542.85"/>
<polygon fill="grey" stroke="grey" stroke-width="2" points="394.4,-539.38 383.83,-540.11 392.55,-546.13 394.4,-539.38"/>
</g>
<!-- 6&#45;&gt;18 -->
<g id="edge37" class="edge">
<title>6&#45;&gt;18</title>
<path fill="none" stroke="grey" stroke-width="2" d="M590.48,-575.77C597.95,-565.83 606.76,-552.79 612.5,-540 668.14,-416 695.02,-253.84 703.97,-190.25"/>
<polygon fill="grey" stroke="grey" stroke-width="2" points="707.45,-190.62 705.34,-180.23 700.51,-189.67 707.45,-190.62"/>
</g>
<!-- 6&#45;&gt;19 -->
<g id="edge44" class="edge">
<title>6&#45;&gt;19</title>
<path fill="none" stroke="grey" stroke-width="2" d="M567.2,-575.92C544.83,-534.16 487.59,-423.04 456.5,-324 450.11,-303.65 445.72,-279.88 443,-262.03"/>
<polygon fill="grey" stroke="grey" stroke-width="2" points="446.45,-261.42 441.56,-252.02 439.52,-262.41 446.45,-261.42"/>
</g>
<!-- 6&#45;&gt;22 -->
<g id="edge51" class="edge">
<title>6&#45;&gt;22</title>
<path fill="none" stroke="grey" stroke-width="2" d="M558.51,-575.83C548.67,-565.9 536.66,-552.86 527.5,-540 443.33,-421.75 408.78,-392.8 373.5,-252 368.37,-231.52 372.02,-207.8 376.61,-190"/>
<polygon fill="grey" stroke="grey" stroke-width="2" points="380,-190.85 379.35,-180.28 373.27,-188.95 380,-190.85"/>
</g>
<!-- 6&#45;&gt;23 -->
<g id="edge55" class="edge">
<title>6&#45;&gt;23</title>
<path fill="none" stroke="grey" stroke-width="2" d="M582.93,-575.82C599.56,-528.91 640.76,-394.97 612.5,-288 602.62,-250.61 578.69,-212.68 561.33,-188.57"/>
<polygon fill="grey" stroke="grey" stroke-width="2" points="564.02,-186.32 555.27,-180.34 558.38,-190.46 564.02,-186.32"/>
</g>
<!-- 7 -->
<g id="node8" class="node">
<title>7</title>
<path fill="none" stroke="#5692d8" stroke-width="2" d="M940.5,-684C940.5,-684 874.5,-684 874.5,-684 868.5,-684 862.5,-678 862.5,-672 862.5,-672 862.5,-660 862.5,-660 862.5,-654 868.5,-648 874.5,-648 874.5,-648 940.5,-648 940.5,-648 946.5,-648 952.5,-654 952.5,-660 952.5,-660 952.5,-672 952.5,-672 952.5,-678 946.5,-684 940.5,-684"/>
<text text-anchor="middle" x="907.5" y="-663.5" font-family="sans" font-size="10.00">fastp_trim_one</text>
</g>
<!-- 7&#45;&gt;6 -->
<g id="edge21" class="edge">
<title>7&#45;&gt;6</title>
<path fill="none" stroke="grey" stroke-width="2" d="M862.17,-655.41C810.07,-644.4 723.5,-626.09 659.29,-612.51"/>
<polygon fill="grey" stroke="grey" stroke-width="2" points="659.69,-609.02 649.18,-610.37 658.24,-615.86 659.69,-609.02"/>
</g>
<!-- 15 -->
<g id="node16" class="node">
<title>15</title>
<path fill="none" stroke="#d89c56" stroke-width="2" d="M995.5,-612C995.5,-612 965.5,-612 965.5,-612 959.5,-612 953.5,-606 953.5,-600 953.5,-600 953.5,-588 953.5,-588 953.5,-582 959.5,-576 965.5,-576 965.5,-576 995.5,-576 995.5,-576 1001.5,-576 1007.5,-582 1007.5,-588 1007.5,-588 1007.5,-600 1007.5,-600 1007.5,-606 1001.5,-612 995.5,-612"/>
<text text-anchor="middle" x="980.5" y="-591.5" font-family="sans" font-size="10.00">fastqc</text>
</g>
<!-- 7&#45;&gt;15 -->
<g id="edge29" class="edge">
<title>7&#45;&gt;15</title>
<path fill="none" stroke="grey" stroke-width="2" d="M925.54,-647.7C934.56,-639.05 945.62,-628.45 955.44,-619.03"/>
<polygon fill="grey" stroke="grey" stroke-width="2" points="957.87,-621.55 962.66,-612.1 953.02,-616.5 957.87,-621.55"/>
</g>
<!-- 16 -->
<g id="node17" class="node">
<title>16</title>
<path fill="none" stroke="#bed856" stroke-width="2" d="M977.5,-540C977.5,-540 899.5,-540 899.5,-540 893.5,-540 887.5,-534 887.5,-528 887.5,-528 887.5,-516 887.5,-516 887.5,-510 893.5,-504 899.5,-504 899.5,-504 977.5,-504 977.5,-504 983.5,-504 989.5,-510 989.5,-516 989.5,-516 989.5,-528 989.5,-528 989.5,-534 983.5,-540 977.5,-540"/>
<text text-anchor="middle" x="938.5" y="-519.5" font-family="sans" font-size="10.00">report_step_fastp</text>
</g>
<!-- 7&#45;&gt;16 -->
<g id="edge32" class="edge">
<title>7&#45;&gt;16</title>
<path fill="none" stroke="grey" stroke-width="2" d="M911.24,-647.87C916.55,-623.56 926.31,-578.82 932.6,-550.01"/>
<polygon fill="grey" stroke="grey" stroke-width="2" points="936.03,-550.71 934.75,-540.19 929.2,-549.21 936.03,-550.71"/>
</g>
<!-- 27 -->
<g id="node28" class="node">
<title>27</title>
<path fill="none" stroke="#9fd856" stroke-width="2" d="M899.5,-108C899.5,-108 817.5,-108 817.5,-108 811.5,-108 805.5,-102 805.5,-96 805.5,-96 805.5,-84 805.5,-84 805.5,-78 811.5,-72 817.5,-72 817.5,-72 899.5,-72 899.5,-72 905.5,-72 911.5,-78 911.5,-84 911.5,-84 911.5,-96 911.5,-96 911.5,-102 905.5,-108 899.5,-108"/>
<text text-anchor="middle" x="858.5" y="-87.5" font-family="sans" font-size="10.00">report_library_one</text>
</g>
<!-- 7&#45;&gt;27 -->
<g id="edge68" class="edge">
<title>7&#45;&gt;27</title>
<path fill="none" stroke="grey" stroke-width="2" d="M897.55,-647.71C883.49,-621.58 859.5,-570.1 859.5,-523 859.5,-523 859.5,-523 859.5,-233 859.5,-193 859.1,-146.65 858.8,-118.08"/>
<polygon fill="grey" stroke="grey" stroke-width="2" points="862.3,-118.01 858.7,-108.05 855.3,-118.09 862.3,-118.01"/>
</g>
<!-- 8 -->
<g id="node9" class="node">
<title>8</title>
<path fill="none" stroke="#5663d8" stroke-width="2" d="M962,-756C962,-756 919,-756 919,-756 913,-756 907,-750 907,-744 907,-744 907,-732 907,-732 907,-726 913,-720 919,-720 919,-720 962,-720 962,-720 968,-720 974,-726 974,-732 974,-732 974,-744 974,-744 974,-750 968,-756 962,-756"/>
<text text-anchor="middle" x="940.5" y="-735.5" font-family="sans" font-size="10.00">reads_link</text>
</g>
<!-- 8&#45;&gt;7 -->
<g id="edge22" class="edge">
<title>8&#45;&gt;7</title>
<path fill="none" stroke="grey" stroke-width="2" d="M932.34,-719.7C928.59,-711.73 924.05,-702.1 919.88,-693.26"/>
<polygon fill="grey" stroke="grey" stroke-width="2" points="922.99,-691.66 915.56,-684.1 916.66,-694.64 922.99,-691.66"/>
</g>
<!-- 8&#45;&gt;15 -->
<g id="edge30" class="edge">
<title>8&#45;&gt;15</title>
<path fill="none" stroke="grey" stroke-width="2" d="M948.25,-719.59C952.58,-709.38 957.83,-696.13 961.5,-684 967.67,-663.62 972.61,-640.02 975.9,-622.25"/>
<polygon fill="grey" stroke="grey" stroke-width="2" points="979.37,-622.74 977.69,-612.28 972.48,-621.5 979.37,-622.74"/>
</g>
<!-- 9 -->
<g id="node10" class="node">
<title>9</title>
<path fill="none" stroke="#56d8c1" stroke-width="2" d="M513,-684C513,-684 452,-684 452,-684 446,-684 440,-678 440,-672 440,-672 440,-660 440,-660 440,-654 446,-648 452,-648 452,-648 513,-648 513,-648 519,-648 525,-654 525,-660 525,-660 525,-672 525,-672 525,-678 519,-684 513,-684"/>
<text text-anchor="middle" x="482.5" y="-663.5" font-family="sans" font-size="10.00">bowtie2_build</text>
</g>
<!-- 9&#45;&gt;4 -->
<g id="edge16" class="edge">
<title>9&#45;&gt;4</title>
<path fill="none" stroke="grey" stroke-width="2" d="M475.69,-647.81C459.27,-606.38 418.81,-504.36 418.5,-504 407.49,-491.34 392.69,-481.02 378.13,-472.96"/>
<polygon fill="grey" stroke="grey" stroke-width="2" points="379.61,-469.79 369.13,-468.23 376.36,-475.98 379.61,-469.79"/>
</g>
<!-- 9&#45;&gt;6 -->
<g id="edge19" class="edge">
<title>9&#45;&gt;6</title>
<path fill="none" stroke="grey" stroke-width="2" d="M505.74,-647.7C517.69,-638.8 532.42,-627.82 545.35,-618.2"/>
<polygon fill="grey" stroke="grey" stroke-width="2" points="547.6,-620.88 553.53,-612.1 543.42,-615.27 547.6,-620.88"/>
</g>
<!-- 9&#45;&gt;20 -->
<g id="edge47" class="edge">
<title>9&#45;&gt;20</title>
<path fill="none" stroke="grey" stroke-width="2" d="M481.12,-647.96C479.08,-621.32 475.5,-568.17 475.5,-523 475.5,-523 475.5,-523 475.5,-449 475.5,-405.83 499.04,-360.53 516.39,-333.03"/>
<polygon fill="grey" stroke="grey" stroke-width="2" points="519.47,-334.7 521.99,-324.41 513.6,-330.89 519.47,-334.7"/>
</g>
<!-- 10 -->
<g id="node11" class="node">
<title>10</title>
<path fill="none" stroke="#a7d856" stroke-width="2" d="M588.5,-756C588.5,-756 448.5,-756 448.5,-756 442.5,-756 436.5,-750 436.5,-744 436.5,-744 436.5,-732 436.5,-732 436.5,-726 442.5,-720 448.5,-720 448.5,-720 588.5,-720 588.5,-720 594.5,-720 600.5,-726 600.5,-732 600.5,-732 600.5,-744 600.5,-744 600.5,-750 594.5,-756 588.5,-756"/>
<text text-anchor="middle" x="518.5" y="-735.5" font-family="sans" font-size="10.00">reference_recompress_human</text>
</g>
<!-- 10&#45;&gt;5 -->
<g id="edge18" class="edge">
<title>10&#45;&gt;5</title>
<path fill="none" stroke="grey" stroke-width="2" d="M482.23,-719.79C465.32,-710.66 445.64,-698.36 430.5,-684 387.74,-643.45 352.61,-583.33 334.59,-549.19"/>
<polygon fill="grey" stroke="grey" stroke-width="2" points="337.68,-547.55 329.97,-540.29 331.47,-550.78 337.68,-547.55"/>
</g>
<!-- 10&#45;&gt;6 -->
<g id="edge20" class="edge">
<title>10&#45;&gt;6</title>
<path fill="none" stroke="grey" stroke-width="2" d="M525.5,-719.87C535.47,-695.46 553.86,-650.43 565.62,-621.64"/>
<polygon fill="grey" stroke="grey" stroke-width="2" points="568.94,-622.77 569.48,-612.19 562.46,-620.12 568.94,-622.77"/>
</g>
<!-- 10&#45;&gt;9 -->
<g id="edge24" class="edge">
<title>10&#45;&gt;9</title>
<path fill="none" stroke="grey" stroke-width="2" d="M509.6,-719.7C505.5,-711.73 500.55,-702.1 496.01,-693.26"/>
<polygon fill="grey" stroke="grey" stroke-width="2" points="498.98,-691.4 491.3,-684.1 492.76,-694.6 498.98,-691.4"/>
</g>
<!-- 10&#45;&gt;18 -->
<g id="edge42" class="edge">
<title>10&#45;&gt;18</title>
<path fill="none" stroke="grey" stroke-width="2" d="M600.62,-724.59C649.28,-715.57 704.63,-701.82 721.5,-684 816.59,-583.54 783.5,-517.33 783.5,-379 783.5,-379 783.5,-379 783.5,-305 783.5,-264.03 779.84,-251.56 759.5,-216 753.46,-205.44 744.81,-195.47 736.29,-187.08"/>
<polygon fill="grey" stroke="grey" stroke-width="2" points="738.59,-184.44 728.91,-180.14 733.8,-189.54 738.59,-184.44"/>
</g>
<!-- 11 -->
<g id="node12" class="node">
<title>11</title>
<path fill="none" stroke="#d85656" stroke-width="2" d="M320,-756C320,-756 177,-756 177,-756 171,-756 165,-750 165,-744 165,-744 165,-732 165,-732 165,-726 171,-720 177,-720 177,-720 320,-720 320,-720 326,-720 332,-726 332,-732 332,-732 332,-744 332,-744 332,-750 326,-756 320,-756"/>
<text text-anchor="middle" x="248.5" y="-735.5" font-family="sans" font-size="10.00">reference_recompress_chicken</text>
</g>
<!-- 11&#45;&gt;3 -->
<g id="edge12" class="edge">
<title>11&#45;&gt;3</title>
<path fill="none" stroke="grey" stroke-width="2" d="M230.92,-719.98C207.1,-694.99 167.5,-645.8 167.5,-595 167.5,-595 167.5,-595 167.5,-521 167.5,-481 167.5,-434.65 167.5,-406.08"/>
<polygon fill="grey" stroke="grey" stroke-width="2" points="171,-406.05 167.5,-396.05 164,-406.05 171,-406.05"/>
</g>
<!-- 11&#45;&gt;4 -->
<g id="edge14" class="edge">
<title>11&#45;&gt;4</title>
<path fill="none" stroke="grey" stroke-width="2" d="M240.21,-719.96C221.71,-679.24 181.9,-574.47 224.5,-504 232.61,-490.59 245.36,-480.4 259.11,-472.73"/>
<polygon fill="grey" stroke="grey" stroke-width="2" points="260.95,-475.72 268.25,-468.04 257.75,-469.49 260.95,-475.72"/>
</g>
<!-- 11&#45;&gt;9 -->
<g id="edge23" class="edge">
<title>11&#45;&gt;9</title>
<path fill="none" stroke="grey" stroke-width="2" d="M305.44,-719.97C343.44,-708.6 393.04,-693.76 430.07,-682.68"/>
<polygon fill="grey" stroke="grey" stroke-width="2" points="431.1,-686.03 439.68,-679.81 429.1,-679.32 431.1,-686.03"/>
</g>
<!-- 11&#45;&gt;18 -->
<g id="edge36" class="edge">
<title>11&#45;&gt;18</title>
<path fill="none" stroke="grey" stroke-width="2" d="M332.15,-728.42C464.55,-712.49 707.5,-672.68 707.5,-595 707.5,-595 707.5,-595 707.5,-521 707.5,-401.44 709.83,-371.56 710.5,-252 710.59,-236 710.95,-231.99 710.5,-216 710.26,-207.67 709.82,-198.62 709.35,-190.39"/>
<polygon fill="grey" stroke="grey" stroke-width="2" points="712.83,-189.94 708.72,-180.18 705.84,-190.37 712.83,-189.94"/>
</g>
<!-- 12 -->
<g id="node13" class="node">
<title>12</title>
<path fill="none" stroke="#97d856" stroke-width="2" d="M212,-252C212,-252 151,-252 151,-252 145,-252 139,-246 139,-240 139,-240 139,-228 139,-228 139,-222 145,-216 151,-216 151,-216 212,-216 212,-216 218,-216 224,-222 224,-228 224,-228 224,-240 224,-240 224,-246 218,-252 212,-252"/>
<text text-anchor="middle" x="181.5" y="-231.5" font-family="sans" font-size="10.00">stats_singlem</text>
</g>
<!-- 12&#45;&gt;0 -->
<g id="edge2" class="edge">
<title>12&#45;&gt;0</title>
<path fill="none" stroke="grey" stroke-width="2" d="M169.23,-215.58C148.06,-183.19 110.25,-113.25 146.5,-72 170.9,-44.23 422.08,-26.78 518.29,-21.06"/>
<polygon fill="grey" stroke="grey" stroke-width="2" points="518.65,-24.55 528.43,-20.47 518.25,-17.56 518.65,-24.55"/>
</g>
<!-- 13&#45;&gt;12 -->
<g id="edge26" class="edge">
<title>13&#45;&gt;12</title>
<path fill="none" stroke="grey" stroke-width="2" d="M186.02,-287.7C185.36,-279.98 184.56,-270.71 183.82,-262.11"/>
<polygon fill="grey" stroke="grey" stroke-width="2" points="187.31,-261.77 182.97,-252.1 180.33,-262.37 187.31,-261.77"/>
</g>
<!-- 14 -->
<g id="node15" class="node">
<title>14</title>
<path fill="none" stroke="#56d85b" stroke-width="2" d="M1097.5,-468C1097.5,-468 1017.5,-468 1017.5,-468 1011.5,-468 1005.5,-462 1005.5,-456 1005.5,-456 1005.5,-444 1005.5,-444 1005.5,-438 1011.5,-432 1017.5,-432 1017.5,-432 1097.5,-432 1097.5,-432 1103.5,-432 1109.5,-438 1109.5,-444 1109.5,-444 1109.5,-456 1109.5,-456 1109.5,-462 1103.5,-468 1097.5,-468"/>
<text text-anchor="middle" x="1057.5" y="-447.5" font-family="sans" font-size="10.00">report_step_reads</text>
</g>
<!-- 14&#45;&gt;0 -->
<g id="edge8" class="edge">
<title>14&#45;&gt;0</title>
<path fill="none" stroke="grey" stroke-width="2" d="M1053.25,-431.63C1047.11,-404.99 1036.5,-352.36 1036.5,-307 1036.5,-307 1036.5,-307 1036.5,-161 1036.5,-106.91 1001.57,-96.8 953.5,-72 890.91,-39.71 679.15,-25.37 592.71,-20.77"/>
<polygon fill="grey" stroke="grey" stroke-width="2" points="592.74,-17.26 582.57,-20.24 592.37,-24.25 592.74,-17.26"/>
</g>
<!-- 15&#45;&gt;14 -->
<g id="edge28" class="edge">
<title>15&#45;&gt;14</title>
<path fill="none" stroke="grey" stroke-width="2" d="M1001.12,-575.95C1011.54,-566.36 1023.62,-553.59 1031.5,-540 1042.63,-520.79 1049.32,-496.44 1053.11,-478.07"/>
<polygon fill="grey" stroke="grey" stroke-width="2" points="1056.59,-478.51 1055.03,-468.03 1049.72,-477.2 1056.59,-478.51"/>
</g>
<!-- 15&#45;&gt;16 -->
<g id="edge31" class="edge">
<title>15&#45;&gt;16</title>
<path fill="none" stroke="grey" stroke-width="2" d="M970.12,-575.7C965.24,-567.56 959.31,-557.69 953.92,-548.7"/>
<polygon fill="grey" stroke="grey" stroke-width="2" points="956.91,-546.88 948.76,-540.1 950.91,-550.48 956.91,-546.88"/>
</g>
<!-- 15&#45;&gt;27 -->
<g id="edge67" class="edge">
<title>15&#45;&gt;27</title>
<path fill="none" stroke="grey" stroke-width="2" d="M987.98,-575.7C991.97,-565.52 996.47,-552.27 998.5,-540 1001.11,-524.21 1001.1,-519.79 998.5,-504 973.54,-352.61 900.36,-182.09 870.95,-117.6"/>
<polygon fill="grey" stroke="grey" stroke-width="2" points="873.98,-115.81 866.62,-108.18 867.62,-118.73 873.98,-115.81"/>
</g>
<!-- 16&#45;&gt;0 -->
<g id="edge7" class="edge">
<title>16&#45;&gt;0</title>
<path fill="none" stroke="grey" stroke-width="2" d="M938.7,-503.95C938.99,-477.29 939.5,-424.12 939.5,-379 939.5,-379 939.5,-379 939.5,-161 939.5,-120.55 950.03,-99.64 920.5,-72 873.59,-28.1 675.96,-20.46 592.71,-19.2"/>
<polygon fill="grey" stroke="grey" stroke-width="2" points="592.72,-15.7 582.68,-19.08 592.63,-22.7 592.72,-15.7"/>
</g>
<!-- 17 -->
<g id="node18" class="node">
<title>17</title>
<path fill="none" stroke="#56d8d8" stroke-width="2" d="M601.5,-108C601.5,-108 509.5,-108 509.5,-108 503.5,-108 497.5,-102 497.5,-96 497.5,-96 497.5,-84 497.5,-84 497.5,-78 503.5,-72 509.5,-72 509.5,-72 601.5,-72 601.5,-72 607.5,-72 613.5,-78 613.5,-84 613.5,-84 613.5,-96 613.5,-96 613.5,-102 607.5,-108 601.5,-108"/>
<text text-anchor="middle" x="555.5" y="-87.5" font-family="sans" font-size="10.00">report_step_bowtie2</text>
</g>
<!-- 17&#45;&gt;0 -->
<g id="edge9" class="edge">
<title>17&#45;&gt;0</title>
<path fill="none" stroke="grey" stroke-width="2" d="M555.5,-71.7C555.5,-63.98 555.5,-54.71 555.5,-46.11"/>
<polygon fill="grey" stroke="grey" stroke-width="2" points="559,-46.1 555.5,-36.1 552,-46.1 559,-46.1"/>
</g>
<!-- 18&#45;&gt;17 -->
<g id="edge35" class="edge">
<title>18&#45;&gt;17</title>
<path fill="none" stroke="grey" stroke-width="2" d="M670.32,-143.88C649.63,-134.35 623.7,-122.41 601.72,-112.28"/>
<polygon fill="grey" stroke="grey" stroke-width="2" points="603.11,-109.07 592.56,-108.07 600.18,-115.43 603.11,-109.07"/>
</g>
<!-- 24 -->
<g id="node25" class="node">
<title>24</title>
<path fill="none" stroke="#56d882" stroke-width="2" d="M775,-108C775,-108 644,-108 644,-108 638,-108 632,-102 632,-96 632,-96 632,-84 632,-84 632,-78 638,-72 644,-72 644,-72 775,-72 775,-72 781,-72 787,-78 787,-84 787,-84 787,-96 787,-96 787,-102 781,-108 775,-108"/>
<text text-anchor="middle" x="709.5" y="-87.5" font-family="sans" font-size="10.00">report_step_bowtie2_human</text>
</g>
<!-- 18&#45;&gt;24 -->
<g id="edge59" class="edge">
<title>18&#45;&gt;24</title>
<path fill="none" stroke="grey" stroke-width="2" d="M707.99,-143.7C708.21,-135.98 708.48,-126.71 708.73,-118.11"/>
<polygon fill="grey" stroke="grey" stroke-width="2" points="712.22,-118.2 709.01,-108.1 705.23,-118 712.22,-118.2"/>
</g>
<!-- 25 -->
<g id="node26" class="node">
<title>25</title>
<path fill="none" stroke="#d8a456" stroke-width="2" d="M301.5,-108C301.5,-108 167.5,-108 167.5,-108 161.5,-108 155.5,-102 155.5,-96 155.5,-96 155.5,-84 155.5,-84 155.5,-78 161.5,-72 167.5,-72 167.5,-72 301.5,-72 301.5,-72 307.5,-72 313.5,-78 313.5,-84 313.5,-84 313.5,-96 313.5,-96 313.5,-102 307.5,-108 301.5,-108"/>
<text text-anchor="middle" x="234.5" y="-87.5" font-family="sans" font-size="10.00">report_step_bowtie2_chicken</text>
</g>
<!-- 18&#45;&gt;25 -->
<g id="edge62" class="edge">
<title>18&#45;&gt;25</title>
<path fill="none" stroke="grey" stroke-width="2" d="M627.49,-145.45C624.46,-144.95 621.45,-144.46 618.5,-144 490.33,-124.01 454.57,-128.52 323.65,-108.28"/>
<polygon fill="grey" stroke="grey" stroke-width="2" points="324.06,-104.81 313.64,-106.72 322.98,-111.72 324.06,-104.81"/>
</g>
<!-- 26 -->
<g id="node27" class="node">
<title>26</title>
<path fill="none" stroke="#b6d856" stroke-width="2" d="M468,-108C468,-108 343,-108 343,-108 337,-108 331,-102 331,-96 331,-96 331,-84 331,-84 331,-78 337,-72 343,-72 343,-72 468,-72 468,-72 474,-72 480,-78 480,-84 480,-84 480,-96 480,-96 480,-102 474,-108 468,-108"/>
<text text-anchor="middle" x="405.5" y="-87.5" font-family="sans" font-size="10.00">report_step_bowtie2_mags</text>
</g>
<!-- 18&#45;&gt;26 -->
<g id="edge65" class="edge">
<title>18&#45;&gt;26</title>
<path fill="none" stroke="grey" stroke-width="2" d="M634.01,-143.97C590.17,-133.8 534.38,-120.87 488.9,-110.33"/>
<polygon fill="grey" stroke="grey" stroke-width="2" points="489.59,-106.9 479.06,-108.05 488.01,-113.72 489.59,-106.9"/>
</g>
<!-- 18&#45;&gt;27 -->
<g id="edge70" class="edge">
<title>18&#45;&gt;27</title>
<path fill="none" stroke="grey" stroke-width="2" d="M744.44,-143.88C764.99,-134.35 790.75,-122.41 812.59,-112.28"/>
<polygon fill="grey" stroke="grey" stroke-width="2" points="814.08,-115.45 821.68,-108.07 811.14,-109.1 814.08,-115.45"/>
</g>
<!-- 19&#45;&gt;18 -->
<g id="edge40" class="edge">
<title>19&#45;&gt;18</title>
<path fill="none" stroke="grey" stroke-width="2" d="M466.67,-225.9C505.21,-215.84 577.21,-197.03 632.48,-182.6"/>
<polygon fill="grey" stroke="grey" stroke-width="2" points="633.45,-185.96 642.24,-180.05 631.68,-179.19 633.45,-185.96"/>
</g>
<!-- 19&#45;&gt;22 -->
<g id="edge49" class="edge">
<title>19&#45;&gt;22</title>
<path fill="none" stroke="grey" stroke-width="2" d="M426.15,-215.7C419.74,-207.39 411.94,-197.28 404.89,-188.14"/>
<polygon fill="grey" stroke="grey" stroke-width="2" points="407.57,-185.88 398.69,-180.1 402.03,-190.16 407.57,-185.88"/>
</g>
<!-- 19&#45;&gt;23 -->
<g id="edge53" class="edge">
<title>19&#45;&gt;23</title>
<path fill="none" stroke="grey" stroke-width="2" d="M464.45,-215.88C477.54,-206.89 493.76,-195.76 507.94,-186.03"/>
<polygon fill="grey" stroke="grey" stroke-width="2" points="510.19,-188.73 516.45,-180.19 506.23,-182.96 510.19,-188.73"/>
</g>
<!-- 20&#45;&gt;18 -->
<g id="edge38" class="edge">
<title>20&#45;&gt;18</title>
<path fill="none" stroke="grey" stroke-width="2" d="M547.92,-287.87C563.37,-268.86 590.15,-237.95 617.5,-216 631.8,-204.52 648.86,-193.84 664.25,-185.12"/>
<polygon fill="grey" stroke="grey" stroke-width="2" points="666.04,-188.13 673.09,-180.22 662.65,-182 666.04,-188.13"/>
</g>
<!-- 20&#45;&gt;19 -->
<g id="edge45" class="edge">
<title>20&#45;&gt;19</title>
<path fill="none" stroke="grey" stroke-width="2" d="M511.02,-287.7C498.94,-278.8 484.05,-267.82 470.98,-258.2"/>
<polygon fill="grey" stroke="grey" stroke-width="2" points="472.84,-255.22 462.71,-252.1 468.69,-260.85 472.84,-255.22"/>
</g>
<!-- 20&#45;&gt;22 -->
<g id="edge52" class="edge">
<title>20&#45;&gt;22</title>
<path fill="none" stroke="grey" stroke-width="2" d="M526.21,-287.93C516.23,-268.69 497.97,-237.3 475.5,-216 462.86,-204.01 447.03,-193.56 432.19,-185.18"/>
<polygon fill="grey" stroke="grey" stroke-width="2" points="433.57,-181.94 423.11,-180.23 430.22,-188.09 433.57,-181.94"/>
</g>
<!-- 20&#45;&gt;23 -->
<g id="edge56" class="edge">
<title>20&#45;&gt;23</title>
<path fill="none" stroke="grey" stroke-width="2" d="M535.34,-287.87C536.54,-263.67 538.73,-219.21 540.15,-190.39"/>
<polygon fill="grey" stroke="grey" stroke-width="2" points="543.66,-190.35 540.65,-180.19 536.66,-190 543.66,-190.35"/>
</g>
<!-- 21 -->
<g id="node22" class="node">
<title>21</title>
<path fill="none" stroke="#d8cb56" stroke-width="2" d="M850.5,-756C850.5,-756 716.5,-756 716.5,-756 710.5,-756 704.5,-750 704.5,-744 704.5,-744 704.5,-732 704.5,-732 704.5,-726 710.5,-720 716.5,-720 716.5,-720 850.5,-720 850.5,-720 856.5,-720 862.5,-726 862.5,-732 862.5,-732 862.5,-744 862.5,-744 862.5,-750 856.5,-756 850.5,-756"/>
<text text-anchor="middle" x="783.5" y="-735.5" font-family="sans" font-size="10.00">reference_recompress_mags</text>
</g>
<!-- 21&#45;&gt;9 -->
<g id="edge25" class="edge">
<title>21&#45;&gt;9</title>
<path fill="none" stroke="grey" stroke-width="2" d="M710.25,-719.97C656.15,-707.38 583.78,-690.55 535.27,-679.27"/>
<polygon fill="grey" stroke="grey" stroke-width="2" points="535.83,-675.81 525.3,-676.95 534.25,-682.63 535.83,-675.81"/>
</g>
<!-- 21&#45;&gt;18 -->
<g id="edge41" class="edge">
<title>21&#45;&gt;18</title>
<path fill="none" stroke="grey" stroke-width="2" d="M791.19,-719.91C802.29,-693.62 821.5,-641.45 821.5,-595 821.5,-595 821.5,-595 821.5,-305 821.5,-264.03 822.33,-248.59 797.5,-216 787.77,-203.22 773.99,-192.94 760.14,-184.96"/>
<polygon fill="grey" stroke="grey" stroke-width="2" points="761.52,-181.73 751.06,-180.04 758.19,-187.88 761.52,-181.73"/>
</g>
<!-- 21&#45;&gt;20 -->
<g id="edge48" class="edge">
<title>21&#45;&gt;20</title>
<path fill="none" stroke="grey" stroke-width="2" d="M780.08,-719.91C776.16,-701.72 769.04,-672.28 759.5,-648 708.29,-517.72 602.3,-385.63 556.44,-331.97"/>
<polygon fill="grey" stroke="grey" stroke-width="2" points="559.05,-329.63 549.87,-324.33 553.74,-334.19 559.05,-329.63"/>
</g>
<!-- 22&#45;&gt;17 -->
<g id="edge33" class="edge">
<title>22&#45;&gt;17</title>
<path fill="none" stroke="grey" stroke-width="2" d="M427.09,-143.88C450.53,-134.22 480,-122.09 504.8,-111.88"/>
<polygon fill="grey" stroke="grey" stroke-width="2" points="506.13,-115.11 514.05,-108.07 503.47,-108.64 506.13,-115.11"/>
</g>
<!-- 22&#45;&gt;24 -->
<g id="edge57" class="edge">
<title>22&#45;&gt;24</title>
<path fill="none" stroke="grey" stroke-width="2" d="M455.01,-145.98C503.83,-135.43 569.51,-121.24 621.92,-109.92"/>
<polygon fill="grey" stroke="grey" stroke-width="2" points="622.84,-113.3 631.88,-107.77 621.36,-106.46 622.84,-113.3"/>
</g>
<!-- 22&#45;&gt;25 -->
<g id="edge60" class="edge">
<title>22&#45;&gt;25</title>
<path fill="none" stroke="grey" stroke-width="2" d="M348.56,-143.88C328.01,-134.35 302.25,-122.41 280.41,-112.28"/>
<polygon fill="grey" stroke="grey" stroke-width="2" points="281.86,-109.1 271.32,-108.07 278.92,-115.45 281.86,-109.1"/>
</g>
<!-- 22&#45;&gt;26 -->
<g id="edge63" class="edge">
<title>22&#45;&gt;26</title>
<path fill="none" stroke="grey" stroke-width="2" d="M390.44,-143.7C392.67,-135.9 395.35,-126.51 397.83,-117.83"/>
<polygon fill="grey" stroke="grey" stroke-width="2" points="401.23,-118.68 400.61,-108.1 394.5,-116.76 401.23,-118.68"/>
</g>
<!-- 22&#45;&gt;27 -->
<g id="edge66" class="edge">
<title>22&#45;&gt;27</title>
<path fill="none" stroke="grey" stroke-width="2" d="M455.21,-145.59C458.35,-145.02 461.45,-144.49 464.5,-144 607.73,-120.89 648.85,-135.04 794.95,-108.12"/>
<polygon fill="grey" stroke="grey" stroke-width="2" points="796.01,-111.48 805.19,-106.2 794.72,-104.6 796.01,-111.48"/>
</g>
<!-- 23&#45;&gt;17 -->
<g id="edge34" class="edge">
<title>23&#45;&gt;17</title>
<path fill="none" stroke="grey" stroke-width="2" d="M544.96,-143.7C546.5,-135.98 548.36,-126.71 550.08,-118.11"/>
<polygon fill="grey" stroke="grey" stroke-width="2" points="553.55,-118.6 552.08,-108.1 546.69,-117.22 553.55,-118.6"/>
</g>
<!-- 23&#45;&gt;24 -->
<g id="edge58" class="edge">
<title>23&#45;&gt;24</title>
<path fill="none" stroke="grey" stroke-width="2" d="M582.6,-143.88C605.67,-134.26 634.64,-122.19 659.07,-112.01"/>
<polygon fill="grey" stroke="grey" stroke-width="2" points="660.65,-115.15 668.54,-108.07 657.96,-108.68 660.65,-115.15"/>
</g>
<!-- 23&#45;&gt;25 -->
<g id="edge61" class="edge">
<title>23&#45;&gt;25</title>
<path fill="none" stroke="grey" stroke-width="2" d="M473.37,-145.46C427.84,-135.08 367.61,-121.35 319.03,-110.27"/>
<polygon fill="grey" stroke="grey" stroke-width="2" points="319.69,-106.83 309.16,-108.02 318.13,-113.66 319.69,-106.83"/>
</g>
<!-- 23&#45;&gt;26 -->
<g id="edge64" class="edge">
<title>23&#45;&gt;26</title>
<path fill="none" stroke="grey" stroke-width="2" d="M508.23,-143.88C490.04,-134.51 467.31,-122.81 447.86,-112.8"/>
<polygon fill="grey" stroke="grey" stroke-width="2" points="449.39,-109.65 438.9,-108.19 446.19,-115.88 449.39,-109.65"/>
</g>
<!-- 23&#45;&gt;27 -->
<g id="edge69" class="edge">
<title>23&#45;&gt;27</title>
<path fill="none" stroke="grey" stroke-width="2" d="M609.51,-145.92C612.54,-145.26 615.55,-144.62 618.5,-144 694.38,-127.95 716.29,-126.76 795.51,-108.15"/>
<polygon fill="grey" stroke="grey" stroke-width="2" points="796.54,-111.51 805.46,-105.8 794.92,-104.7 796.54,-111.51"/>
</g>
<!-- 24&#45;&gt;0 -->
<g id="edge3" class="edge">
<title>24&#45;&gt;0</title>
<path fill="none" stroke="grey" stroke-width="2" d="M671.83,-71.88C647.46,-60.8 615.9,-46.46 591.81,-35.5"/>
<polygon fill="grey" stroke="grey" stroke-width="2" points="593.2,-32.29 582.64,-31.34 590.3,-38.66 593.2,-32.29"/>
</g>
<!-- 25&#45;&gt;0 -->
<g id="edge4" class="edge">
<title>25&#45;&gt;0</title>
<path fill="none" stroke="grey" stroke-width="2" d="M312.61,-71.97C377.93,-57.72 468.23,-38.03 518.29,-27.11"/>
<polygon fill="grey" stroke="grey" stroke-width="2" points="519.31,-30.47 528.34,-24.92 517.82,-23.63 519.31,-30.47"/>
</g>
<!-- 26&#45;&gt;0 -->
<g id="edge5" class="edge">
<title>26&#45;&gt;0</title>
<path fill="none" stroke="grey" stroke-width="2" d="M442.19,-71.88C465.52,-60.99 495.6,-46.95 518.91,-36.07"/>
<polygon fill="grey" stroke="grey" stroke-width="2" points="520.54,-39.18 528.12,-31.78 517.58,-32.83 520.54,-39.18"/>
</g>
<!-- 27&#45;&gt;0 -->
<g id="edge1" class="edge">
<title>27&#45;&gt;0</title>
<path fill="none" stroke="grey" stroke-width="2" d="M805.45,-74.26C802.42,-73.48 799.43,-72.72 796.5,-72 724.62,-54.25 639.96,-36.31 592.53,-26.53"/>
<polygon fill="grey" stroke="grey" stroke-width="2" points="593.21,-23.1 582.71,-24.51 591.8,-29.95 593.21,-23.1"/>
</g>
</g>
</svg>
